<svg width="98" height="100" viewBox="0 0 98 100" fill="none" xmlns="http://www.w3.org/2000/svg">
<path d="M74.9584 33.3415C61.0655 32.354 52.9594 36.8777 48.6655 40.6899C44.3481 36.832 36.1733 32.331 22.1427 33.3645C21.8212 33.3875 21.4997 33.4105 21.2012 33.4105L22.2213 25.3924C22.3002 24.772 22.7147 24.2327 23.2954 24.0005C39.9981 17.3207 56.5303 17.1978 72.8919 24.0837C73.4575 24.3218 73.859 24.8536 73.9378 25.4622L74.9584 33.3415Z" fill="#9E5CF2"/>
<path d="M91.6746 54.1014C86.8521 47.7178 79.1824 43.5846 70.5712 43.5846C61.4775 43.5846 53.4403 48.2 48.6643 55.1809C43.8878 48.2 35.8506 43.5846 26.7572 43.5846C18.1459 43.5846 10.476 47.7178 5.63103 54.1014C-1.90102 45.9496 -0.201756 36.3278 1.29063 31.7351C1.58945 30.7938 2.82927 30.6789 3.33469 31.5288C4.91902 34.2154 8.9606 38.073 19.1102 38.096C20.1664 38.096 21.2916 38.0501 22.4858 37.9584C42.8775 36.4198 48.6643 47.7178 48.6643 47.7178C48.6643 47.7178 54.4509 36.4198 74.8423 37.9584C76.0365 38.0501 77.1616 38.096 78.1949 38.096C88.3448 38.073 92.3863 34.2154 93.971 31.5288C94.4761 30.6789 95.7162 30.7938 96.0145 31.7351C97.5071 36.3278 99.2294 45.9726 91.6746 54.1014Z" fill="#9E5CF2"/>
<path d="M55.3917 91.7851C54.6567 94.3567 53.0034 97.342 49.3983 99.7763C48.9618 100.075 48.3648 100.075 47.9286 99.7763C44.3232 97.342 42.6699 94.3567 41.9352 91.7851C44.553 89.9479 46.8494 87.6286 48.6636 84.9878C50.4775 87.6286 52.7738 89.9479 55.3917 91.7851Z" fill="#9E5CF2"/>
<path d="M70.5716 48.1755C58.4699 48.1755 48.6648 57.9806 48.6648 70.0824C48.6648 82.1841 58.4699 91.9892 70.5716 91.9892C82.6734 91.9892 92.4785 82.1841 92.4785 70.0824C92.4785 57.9806 82.6734 48.1755 70.5716 48.1755ZM70.5716 84.733C62.4885 84.733 55.921 78.1655 55.921 70.0824C55.921 61.9993 62.4885 55.4317 70.5716 55.4317C78.6318 55.4317 85.2223 61.9992 85.2223 70.0824C85.2223 78.1655 78.6318 84.733 70.5716 84.733Z" fill="#9E5CF2"/>
<path d="M93.8797 17.8194L87.932 19.7942V28.0613C87.932 29.3471 86.8987 30.3576 85.6356 30.3576C84.3728 30.3576 83.3393 29.3471 83.3393 28.0613V21.3099L77.9662 23.1008C77.3462 21.6544 76.152 20.4603 74.6821 19.8402C66.0251 16.2118 57.1383 14.3519 48.2515 14.3519C39.4796 14.3519 30.5006 16.1661 21.5911 19.7483C20.1441 20.3224 18.9959 21.4016 18.3072 22.7566L3.42699 17.8194C1.93433 17.3373 1.93433 15.1097 3.42699 14.6275L46.5063 0.344364C47.907 -0.114788 49.3997 -0.114788 50.8004 0.344364L93.8797 14.6275C95.3721 15.1096 95.3721 17.3373 93.8797 17.8194Z" fill="#9E5CF2"/>
<path d="M70.571 60.0272C65.0138 60.0272 60.5131 64.5279 60.5131 70.0852C60.5131 75.6194 65.0138 80.1431 70.571 80.1431C76.1052 80.1431 80.629 75.6194 80.629 70.0852C80.629 64.5279 76.1052 60.0272 70.571 60.0272ZM67.6344 70.1C66.3374 70.1 65.2815 69.0444 65.2815 67.7474C65.2815 67.6888 65.2837 67.6305 65.2879 67.5733C65.3773 66.357 66.3957 65.3947 67.6344 65.3947C68.9315 65.3947 69.9871 66.4503 69.9871 67.7474C69.9871 69.0231 68.9099 70.1 67.6344 70.1Z" fill="#9E5CF2"/>
<path d="M26.7596 60.027C21.2026 60.027 16.7019 64.5277 16.7019 70.0849C16.7019 75.6192 21.2026 80.1429 26.7596 80.1429C32.2941 80.1429 36.8178 75.6192 36.8178 70.0849C36.8178 64.5277 32.2941 60.027 26.7596 60.027ZM23.823 70.0998C22.526 70.0998 21.4703 69.0441 21.4703 67.7471C21.4703 67.6885 21.4723 67.6302 21.4768 67.573C21.5662 66.3568 22.5846 65.3944 23.823 65.3944C25.1203 65.3944 26.176 66.4501 26.176 67.7471C26.176 69.0228 25.0987 70.0998 23.823 70.0998Z" fill="#9E5CF2"/>
<path d="M26.7601 48.1755C14.6584 48.1755 4.85327 57.9806 4.85327 70.0824C4.85327 82.1841 14.6584 91.9892 26.7601 91.9892C38.8619 91.9892 48.667 82.1841 48.667 70.0824C48.667 57.9806 38.8619 48.1755 26.7601 48.1755ZM26.7601 84.733C18.677 84.733 12.1095 78.1655 12.1095 70.0824C12.1095 61.9993 18.677 55.4317 26.7601 55.4317C34.8203 55.4317 41.4107 61.9992 41.4107 70.0824C41.4107 78.1655 34.8203 84.733 26.7601 84.733Z" fill="#9E5CF2"/>
</svg>
